<?xml version="1.0" encoding="UTF-8" standalone="no"?>
<!-- Created with Inkscape (http://www.inkscape.org/) -->

<svg
   xmlns:svg="http://www.w3.org/2000/svg"
   xmlns="http://www.w3.org/2000/svg"
   version="1.1"
   width="66.783897mm"
   height="33.902401mm"
   viewBox="0 0 72.3639 36.735"
   id="svg2"
   xml:space="preserve"
   style="fill-rule:evenodd">
 <defs
   id="defs4">
  <style
   type="text/css"
   id="style6" />
 </defs>
 <g
   id="Layer_x0020_1">
  
  <polygon
   points="0.275873,35.2123 2.15898,32.5839 1.96502,30.2565 1.30037,28.072 0.774632,25.3854 2.32476,23.1982 3.3498,20.6509 4.5117,21.0947 6.08978,20.0152 6.08978,18.4089 6.754,18.2705 7.28039,18.1869 7.11461,16.886 8.222,15.8064 9.43969,15.8623 10.1876,13.9799 11.7098,12.5966 13.6748,11.1288 15.6409,10.5467 17.6061,10.3258 18.852,10.8515 20.3744,10.9897 21.5372,11.4329 21.3159,9.52259 21.1772,7.55735 21.6207,5.9798 21.2326,4.06961 20.8179,2.18672 20.7341,1.07954 22.6167,0 24.9695,1.07954 26.2715,0.443065 27.4344,1.24533 28.0161,1.96524 28.3204,3.04554 30.1193,3.21165 31.2268,2.68494 31.7246,2.68494 32.6656,1.88235 33.3305,2.02061 33.6898,3.12854 33.773,4.65104 34.4927,5.53652 35.2955,4.37333 35.7391,4.73339 36.3197,5.9798 37.4831,6.92065 38.784,7.14267 39.947,7.72421 41.2756,8.08374 42.4938,7.64002 43.8779,7.33598 44.8466,7.86215 45.6215,9.02513 46.5902,10.27 47.8916,10.9073 49.0544,10.4081 48.9159,8.94213 50.2167,9.30176 51.0206,9.16285 50.8819,8.44315 49.7745,7.41919 49.8576,6.83776 51.1585,7.1975 51.8227,6.83776 51.9617,5.75822 52.9857,6.33943 53.6505,5.2315 54.369,5.2315 55.0901,6.83776 57.055,6.39383 59.0205,6.11904 60.5709,6.33943 62.0929,6.5608 63.1727,6.25643 65.1385,6.39383 65.4435,4.95487 67.8511,5.01111 69.236,5.01111 70.1773,5.45287 71.0353,6.69971 71.4783,7.77796 71.699,8.88611 71.6161,9.96619 71.7832,10.8515 72.3639,11.2113 71.699,11.9314 71.0353,13.399 69.8725,13.399 68.9318,12.8736 68.2117,11.7098 66.8828,11.9314 66.1632,13.9799 64.7787,14.3395 64.114,13.7581 62.3153,14.5606 60.7086,12.2913 59.4079,13.3158 60.1837,14.6172 58.4396,15.0042 56.5566,14.1187 55.754,12.7346 52.5424,12.7346 51.5463,13.6204 53.5668,16.1677 52.709,16.886 50.5221,14.6996 49.0544,16.8038 47.2275,18.5477 47.2275,19.8767 45.2071,20.5135 44.2653,20.0152 43.2411,20.9283 40.3345,21.0115 39.4485,23.8348 34.4927,28.7357 30.4789,28.072 29.9808,29.0123 26.7699,29.2337 24.7485,30.0369 20.07,29.3166 15.7238,29.8142 10.9077,30.1192 9.38411,31.6422 7.55724,33.2481 6.754,34.9085 4.5117,36.6526 0,36.735 "
   id="polygon10"
   style="fill:#ffdf49" />



 </g>
</svg>