<?xml version="1.0" encoding="UTF-8" standalone="no"?>
<!-- Created with Inkscape (http://www.inkscape.org/) -->

<svg
   xmlns:svg="http://www.w3.org/2000/svg"
   xmlns="http://www.w3.org/2000/svg"
   version="1.1"
   width="51.735901mm"
   height="69.134903mm"
   viewBox="0 0 52.4962 70.1509"
   id="svg2"
   xml:space="preserve"
   style="fill-rule:evenodd">
 <defs
   id="defs4">
  <style
   type="text/css"
   id="style6" />
 </defs>
 <g
   id="Layer_x0020_1">
  
  <path
   d="m 52.2374,35.4645 0.258849,-0.673961 -0.803538,-1.03743 0.466557,-0.59583 -0.05195,-0.830021 -3.68101,-2.92902 -0.363363,-1.42595 -0.543979,-0.07783 -0.596134,0.881466 -1.63356,-0.337488 -0.958888,-0.62211 -0.959497,-0.258443 -1.1671,0.258443 -0.128866,-0.881568 0.751281,-1.08846 -0.622415,-0.804147 -0.958685,0.93352 -0.207708,1.29698 -0.544283,-0.881466 -0.259356,-0.881872 0.259356,-0.958989 -0.05134,-0.596337 -0.07773,-1.65913 -1.29597,0 -1.55604,-0.181225 -0.492432,-0.700039 -0.129272,-0.959192 -0.415011,-0.336981 -1.63295,-0.05175 0.07722,-0.907849 1.42534,0 0.959801,0.622212 0.415417,-0.337386 -0.622922,-0.958786 0,-1.08917 -1.71098,-0.466253 -0.414808,-1.08857 -0.673758,-1.24432 2.25577,-1.89332 -2.17794,-0.699126 -0.622313,-2.6446997 0.544486,-0.544283 -0.674468,-1.03631 -0.336981,-0.545501 -0.492026,0 -0.337386,-1.63305 0.414808,-0.336676 -0.492229,-1.50327 -0.05246,-0.959091 -0.829514,0 -2.8515,-1.50439 -1.16599,0.544993 -0.674874,-0.596844 0.259762,-0.881263 -1.29638,-0.362754 -0.802726,2.87758 -0.208622,1.63305 -0.751585,0.958989 0.674367,1.29638 -1.29668,0.752499 -0.595525,1.01094 -0.493244,-0.467369 -1.34853,1.21865 1.08968,0.415619 0.12978,1.6322397 0.881263,0.622009 1.42565,0.208114 0.829007,0.259052 -0.413793,1.97013 -0.804147,-0.05185 -0.544283,-0.829007 -0.622212,-0.05215 -0.415011,0.803741 -2.51462,0.07742 -0.673961,0.336575 -0.82921,-0.336575 -0.958685,0.596743 -0.959801,-0.337183 -0.59654,-0.544892 -1.24412,0.129272 -1.01125,0.907747 -1.21835,-0.907747 -1.16649,0.907747 -1.08907,-0.362855 -1.2441201,0.492229 -1.55512,-1.08836 -0.751687,0 -0.129881,0.596134 -1.29617,0.958989 0,1.63346 -1.08877,0 -1.58151,1.65852 0.077421,0.67457 -0.881466,2.04827 0.933216,1.14052 -1.21824,0.414402 -1.50337,4.84842 0,0.285028 0,-0.02638 1.50337,1.37441 1.16649,2.17815 1.97024,0.621197 0.751382,-0.750875 0.752499,0.258849 -0.415011,1.99621 0.752296,1.14052 0.129577,1.11444 1.5813,-0.07732 0.75189,0.803335 -0.960105,1.71118 0.285941,0.75189 1.01023,0.128866 0.544993,-1.34741 1.0113498,0.259559 1.50337,0.155553 0.829311,-1.03743 0.674468,0.414706 -0.259356,0.881263 0.673657,0.7526 -0.751585,1.42484 0.467166,0.543979 0.206592,2.04898 2.87768,1.5809 0.467572,-0.958279 -0.260371,-1.1667 1.89342,0.336473 -0.467876,1.50398 0.882075,0.284521 0.674671,0.05226 1.16538,1.50358 0.285333,2.33299 1.42616,1.21906 -2.12528,2.25455 3.42125,3.57772 -1.08796,1.50317 -0.208013,1.76324 c -0.07752,0.05205 -0.155553,0.07793 -0.207302,0.103803 l 0.07823,0.103499 2.02127,1.08897 0.414706,2.04847 1.03763,2.04674 2.98077,1.3738 -0.05155,2.17957 0.959192,1.71047 1.01043,-0.07864 0,-1.42595 c 0,0 1.84157,-2.17602 1.84157,-2.33228 0,-0.129069 -0.545196,-3.13714 -0.545196,-3.13714 l -0.751179,-2.85282 0.07742,-1.03611 1.42534,-1.76222 0.960004,-2.46307 0.751382,0.493244 1.63386,-0.80435 0.05124,-1.71088 1.167,-0.181326 0,-1.37481 0.881162,-1.08765 0.959497,0.206694 0.958786,-1.7884 1.08867,-1.01094 1.08917,-0.959395 1.1666,-0.803132 2.17805,-0.362652 1.55492,0 2.33299,0.414199 1.01155,0.337995 -0.20781,-2.72314 0.07793,-1.29638 0.337183,-1.14032 -0.544486,-2.67007 -0.259052,-1.91879 1.76273,-0.75189 -0.129475,-0.466151 z"
   id="path10"
   style="fill:#ffdf49" />
 
 </g>
</svg>