<?xml version="1.0" encoding="UTF-8" standalone="no"?>
<!-- Created with Inkscape (http://www.inkscape.org/) -->

<svg
   xmlns:svg="http://www.w3.org/2000/svg"
   xmlns="http://www.w3.org/2000/svg"
   version="1.1"
   width="500px"
   height="500px"
   viewBox="0 0 71.2237 71.9382"
   id="svg2"
   xml:space="preserve"
   style="fill-rule:evenodd">
 <defs
   id="defs4">
  <style
   type="text/css"
   id="style6" />
 </defs>
 <g
   id="Layer_x0020_1">
  
  <path
   d="m 19.6772,71.5157 1.53375,-4.94639 1.24286,-0.422775 -0.952072,-1.16356 0.899277,-2.08965 -0.07899,-0.6882 1.61346,-1.69203 1.11077,0 0,-1.66646 1.32236,-0.978366 0.132505,-0.608179 0.766875,0 1.58655,1.11035 1.26926,-0.502175 1.11108,0.370187 1.19006,-0.926089 1.24296,0.926089 1.03168,-0.926089 1.26926,-0.131884 0.608593,0.555902 0.979194,0.343997 0.978056,-0.6088 0.845964,0.343375 0.687579,-0.343375 2.56543,-0.07899 0.423396,-0.819981 0.634784,0.05321 0.555281,0.845757 0.820395,0.0529 0.422154,-2.00994 -0.845757,-0.264286 -1.45445,-0.212319 -0.89907,-0.634577 -0.132402,-1.66522 -1.1117,-0.424017 1.37578,-1.24327 0.50321,0.476813 0.607558,-1.03137 1.32288,-0.767703 -0.687993,-1.32257 0.766772,-0.978366 0.212837,-1.66605 0.818946,-2.93572 1.32257,0.370084 -0.265011,0.89907 0.688511,0.608904 1.18955,-0.556005 2.90912,1.53479 0.97878,0 0.502485,-2.56543 1.11098,0 4.65498,-2.43386 1.24317,-2.93531 0.687061,-0.185197 0.767186,0.740685 1.19006,-1.71957 -0.555488,-0.978056 0.291408,-1.66657 0.898863,0.343272 1.53406,-0.898553 0.265218,0.608076 2.4321,0 0.688097,-0.819877 1.53375,-0.34379 0.978366,-2.93603 0.211698,-1.66605 -1.58706,-1.32185 -1.13675,-0.979091 -0.740788,-1.53406 -1.53344,-0.951969 -0.424224,-1.48106 c 0,0 1.6676,0.423189 0.978366,-0.555074 -0.712941,-0.9529 -0.554142,-1.37557 -0.554142,-1.37557 l -0.291201,-1.82474 1.32236,-0.476606 -0.0528,-1.66532 -2.45953,0.131367 -1.11077,-0.634266 0.634991,-1.45487 -0.475881,-0.767082 -0.979194,0 -0.846793,-1.11077 -0.687372,-0.132298 -0.07847,1.58686 -1.1118,0.159007 -0.132402,-1.40207 -0.686854,1.191 -2.03706,0.211077 -1.50766,-0.766772 -0.211491,-1.66667 -1.61294,-0.766772 0.07888,-0.8462748 -0.766772,0.131677 -0.766979,-0.264079 0.899484,-3.06771 -0.476916,-0.2647 -0.633852,0.608283 -0.6882,-2.43334 -2.00994,0.211698 -1.40145,-1.16408 0.475984,-0.846171 -0.820291,-0.687579 -1.05746,0.211491 -0.555591,0.952279 -1.79814,-0.608283 -2.37982,-2.59203 -1.45549,0.0797103 -0.05311,1.58717 -0.422982,1.90342 -0.290477,1.71988 -0.820291,1.26905 -1.53385,1.32267 -2.51232,0.264183 -2.43313,0 -2.00984,0.291098 -0.688821,2.0632495 -1.74462,1.48075 -4.04701,3.12092 -2.14234,1.66626 -2.56522,1.40114 -1.26895,1.79855 -17.8001995,19.0692 1.87795,1.66615 0.211802,4.52237 -0.343479,4.0203 -0.925778,1.48106 -0.740892,0.687786 -0.290684,2.22174 1.74607,-0.845757 2.85529,3.14659 -0.845861,2.909121 0,0.0529 0.078675,0.02619 1.66636,1.40249 -0.343893,0.687372 -1.32247,0.0528 -0.158282,1.32247 2.93541,3.83469 0.978987,-0.819153 1.66615,0.05238 0.8197744,2.08976 1.05725,2.08882 2.43417,0 0.766979,1.40187 0.34379,-0.714287 1.95777,1.19079 1.66626,0.422568 1.37474,-0.131781 0,-0.290787 z"
   id="path10"
   style="fill:#ffdf49" />
 </g>
  
</svg>