<?xml version="1.0" encoding="UTF-8" standalone="no"?>
<!-- Created with Inkscape (http://www.inkscape.org/) -->

<svg
   xmlns:svg="http://www.w3.org/2000/svg"
   xmlns="http://www.w3.org/2000/svg"
   version="1.1"
   width="65.302902mm"
   height="70.821098mm"
   viewBox="0 0 66.5002 72.1195"
   id="svg2"
   xml:space="preserve"
   style="fill-rule:evenodd">
 <defs
   id="defs4">
  <style
   type="text/css"
   id="style6" />
 </defs>
 <g
   id="Layer_x0020_1">
  
  <path
   d="m 51.3055,55.5461 -0.884423,-0.338291 -0.208555,-0.962224 -1.09196,0 -1.01477,1.11905 -0.962529,-0.07831 -0.624442,0.962733 -1.84817,-0.884423 -1.84593,0.546031 -0.130245,0.597966 -1.04084,0 -0.936562,0.963038 -0.624951,1.84705 -0.338291,0.676276 -0.962427,0 -0.338596,1.58799 -1.09186,-0.07811 -1.92516,2.60103 -0.469248,0 -0.545725,0.624544 -0.832386,0.05153 -0.546947,0.417008 -1.92567,0 -2.31457,2.67954 -2.15999,0.988599 0.05244,-0.311814 -0.156111,-0.62485 0.415888,-0.181569 -0.624239,-0.416804 0.54654,-1.17139 0.415684,-0.415888 0,-0.754076 -0.883914,-0.05244 -0.546845,1.01497 -2.31518,-1.22282 -1.04125,0.416091 -1.22241,-0.416091 -0.07811,-1.09308 -1.17119,-0.0777 -0.338189,1.22231 -2.18514,2.263859 -0.884627,0.155907 -0.75428,0.260389 -2.4717,-0.207944 -0.806724,0.546336 -0.702549,-0.468435 -0.676683,0.260389 -1.76874,-0.05214 -0.494503,-0.702141 -0.754382,0.155398 0,1.69166 0.416906,0.0777 0.207333,0.962326 -0.675665,0 -0.208453,1.17129 -1.76895,0.05183 -0.494401,1.17108 -0.858252,-0.05224 -0.859372,-0.442059 -0.884728,-1.76956 -1.50805,-1.01446 -0.390837,-1.24868 1.01528,-0.468026 -0.676683,-1.17119 -0.286457,-1.22282 0,-1.09308 1.37903,-0.493688 L 2.471605,61.712208 1.846959,61.582981 1.014675,61.842249 5e-6,61.582981 l 0.129736,-0.494707 0.416906,-0.728618 1.09247,-0.156823 -0.129939,-1.76874 1.09257,0.468434 0.467721,-0.468434 -0.806215,-1.2222 -0.155601,-1.24909 0.285744,-0.806724 0.208351,-1.45683 -0.130143,-0.546438 -1.37974,-0.468943 0.339003,-0.961715 1.30143,-0.130347 2.31508,0.88483 0.962631,-0.754484 -0.051833,-1.56151 0.129532,-1.09196 0.754484,0.88371 1.43137,-0.207536 -0.754789,-1.37893 0.962326,-0.676377 1.7695602,0.415786 2.05571,-0.701734 1.04033,-0.130958 0.338392,-1.09247 1.09226,0.494808 0.962326,0 0.755298,1.84695 1.30072,0.182078 0.337985,1.84705 0.598678,-0.05122 0.156009,-1.92567 0.884219,-0.26049 0.885136,-3.01763 -0.07821,-1.37913 0.754076,-1.14512 1.2495,0.05214 1.89919,0.338698 0.364156,-1.09298 -1.50958,-0.937071 0.676887,-2.0551 -0.416295,-0.75428 2.13341,-0.755095 0.05244,-1.09247 0.832488,-0.20774 -0.13055,-1.92516 -1.37903,-0.962835 -1.76936,0.156111 0.05244,-1.17068 -0.338189,-0.62485 0.624442,-0.415684 1.5606,0.07821 0.547151,-1.01508 -0.390633,-1.63962 -0.962326,-0.962326 -1.04104,-0.285744 -0.05244,-1.43157 -1.50775,-1.97689 -0.339207,-1.17108 -0.546642,-0.623526 0.75428,-1.56192 -0.571489,-0.130143 -0.884525,0.728822 -0.390735,-0.260082 -0.286254,-0.676276 -0.676174,0 -0.338392,0.676276 -0.910798,-1.01467 -0.675766,0 -0.26049,-0.962631 0.390226,-0.884728 -0.338392,-1.71732 -1.43066,-0.208249 -0.130347,-0.623729 1.01477,-0.05214 -0.624442,-0.833201 1.04053,-0.884423 -1.92567,-2.34125 0.07841,-0.598169 0.62485,-0.155907 0.181874,0.572202 0.754993,-0.572202 2.1328,-3.5389098 -0.754382,-0.416091 0.130652,-0.962529 -0.416804,-0.624646 0.494707,-0.675868 -0.0779,-1.30102 0.831775,-0.676785 0.41711,-0.54654 -1.37954,-0.624646 -1.17088,-1.30051 2.55042,0.494808 1.2218,0.208046 1.17108,-0.832793 1.01436,1.50836 c 0,0 0.62434,0.546743 1.97801,0.130449 1.37842,-0.416091 2.26365,-0.130449 2.26365,-0.130449 l 2.133,0.96314 2.23687,1.14481 2.34217,0.207842 0.806419,0.208555 0.832284,-0.547456 0.885136,1.50978 1.43045,0.884932 0.364564,1.30021 1.43157,-0.259471 1.50866,-1.24899 3.06977,1.09288 0.285846,1.92587 1.84746,-0.078921 2.10744,1.5088697 1.17017,-0.7542797 4.70949,-0.338392 0.286152,4.1106097 1.22343,0.468434 0,2.00367 2.80897,-0.208046 1.71773,0.129838 0.806419,0.546438 1.04033,-1.22353 1.22302,0.547253 2.0551,1.14461 1.43178,0.285846 -1.35357,1.97771 -0.07821,1.43025 -1.71691,0 -0.80652,0.625359 0.05204,1.97659 0.62434,0.156416 -0.07739,0.884627 -1.30123,-0.623729 -0.598678,-0.677498 -0.155907,-0.545623 -0.468841,-0.07882 -0.467721,1.09298 0.337883,2.00357 0.468332,0.33768 -0.415888,1.30102 -1.76925,0.598475 0.676581,2.88789 -1.63992,1.22332 -1.50876,1.97689 c 0,0 -0.67597,1.63952 -0.805604,2.21141 -0.156111,0.546234 -0.286152,1.01426 -0.286152,1.01426 l -1.63972,0.677396 -1.09267,0.884423 0.88483,2.47078 -0.676785,0.676887 0.806928,1.11854 0.156111,0.884423 -0.494299,1.97801 0.546234,1.7164 0.28605,1.43117 -0.676581,1.30123 -0.28605,0.259981 -0.832488,0.910085 -0.338087,1.09328 -1.01467,0.806215 0.754382,0.62485 0.676377,-0.207842 0.129838,1.97638 -1.09267,0.338291 z"
   id="path10"
   style="fill:#ffdf49" />
  


 </g>
</svg>