<?xml version="1.0" encoding="UTF-8" standalone="no"?>
<!-- Created with Inkscape (http://www.inkscape.org/) -->

<svg
   xmlns:svg="http://www.w3.org/2000/svg"
   xmlns="http://www.w3.org/2000/svg"
   version="1.1"
   width="39.166302mm"
   height="66.528999mm"
   viewBox="0 0 33.5732 57.0284"
   id="svg2"
   xml:space="preserve"
   style="fill-rule:evenodd">
 <defs
   id="defs4">
  <style
   type="text/css"
   id="style6" />
 </defs>
 <g
   id="Layer_x0020_1">
  
  <polygon
   points="32.8287,55.6485 32.1939,55.6915 31.6243,55.2319 31.799,54.5531 31.0326,54.2684 30.5733,53.4584 30.9238,52.8671 30.2443,51.9033 29.3686,51.6185 29.3025,50.8086 29.6532,50.3484 29.7189,48.9693 29.5438,47.6328 30.2882,47.3487 30.3981,46.8228 29.4338,46.1872 29.8942,43.8441 29.1494,43.9537 29.4338,42.7934 28.9082,42.1579 29.0186,41.8732 29.5438,41.8077 29.7847,40.7345 29.4784,39.4641 29.7847,37.7338 29.9373,36.8144 30.2882,35.6532 30.1131,35.0182 30.3981,34.1644 30.4637,33.4196 31.2078,33.0032 31.5585,31.6243 30.8798,30.7042 31.0985,29.1489 30.4637,26.8934 30.4637,25.4699 29.9373,24.9444 29.8284,23.8496 30.354,23.2798 31.2078,23.2798 31.2078,22.3601 31.8434,21.3749 32.3692,21.3749 32.4787,20.3455 32.128,19.2939 31.2078,18.549 32.0189,18.0241 31.8434,15.2643 30.9238,14.2349 31.1647,13.2492 30.5733,11.9794 30.9238,10.8841 30.9238,9.9649 31.7336,9.92058 32.2593,9.11036 31.9087,8.69376 32.2593,7.94963 32.1939,6.63538 33.3983,6.39477 33.5732,5.86905 32.3692,4.77407 32.4347,4.20514 32.3033,3.67917 32.6534,3.52633 32.128,3.17548 32.588,2.18945 32.9379,1.83937 32.9379,1.20462 32.1939,1.16047 31.7336,2.01484 29.7847,0.985518 28.9082,1.33577 27.8793,0.985518 27.8135,0.065404 26.8277,0 26.543,1.02889 24.7036,2.93452 23.959,3.06576 23.324,3.28495 21.2435,3.10991 20.5644,3.56979 19.973,3.17548 19.4034,3.39467 17.9145,3.35078 17.4983,2.75974 16.8633,2.89055 16.8633,4.31452 17.2142,4.37993 17.3887,5.18998 16.82,5.18998 16.6445,6.17592 15.1555,6.21955 14.7393,7.20533 13.8632,7.16136 14.0598,7.31505 15.374,8.4096 15.1987,9.78917 14.3885,12.2204 13.1185,12.505 12.5487,13.1839 10.5348,13.1839 10.3152,12.6804 9.04496,13.4245 8.30065,13.1402 8.05935,14.5202 8.51933,15.3301 7.53389,16.754 6.89863,16.1407 6.3297,16.294 5.3003,18.7246 1.44575,20.7399 0.525804,20.7399 0.109721,22.8642 0,22.8642 0.044317,23.6745 0.460143,24.9444 0.109721,25.2288 0.394739,26.6084 0.810393,26.6084 1.09507,27.0692 1.66485,27.9447 1.20487,28.4045 1.73059,30.6387 3.57048,31.2293 1.66485,32.8287 2.23402,33.8799 2.58445,34.7995 4.02985,35.1934 4.02985,36.1135 4.55608,36.9234 4.20514,37.2085 3.39432,36.6828 2.19022,36.6828 2.12499,37.4498 3.50447,37.4935 3.85507,37.7782 3.96427,38.5885 4.38027,39.1798 5.69478,39.3329 6.78959,39.3329 6.85525,40.7345 6.89863,41.2383 6.67953,42.0484 6.89863,42.7934 7.35843,43.5381 7.53389,42.4424 8.34377,41.6538 8.86958,42.3331 8.23491,43.2526 8.34377,43.9974 9.32972,43.779 10.1403,43.9974 10.9503,44.5229 12.3303,44.808 12.8339,44.0634 13.2935,44.1291 13.6004,45.3337 16.7101,47.8081 16.754,48.5093 16.3598,49.0126 17.0387,49.889 16.82,50.4584 16.8633,50.6333 18.7246,51.4874 19.7546,50.9839 20.6745,51.6185 21.1348,52.188 21.3755,53.0427 22.7986,53.1741 23.6747,52.7574 24.0685,52.7574 24.813,52.1225 25.339,52.2318 25.6232,53.1083 25.689,54.3128 26.2584,55.0133 26.8935,54.0931 27.2444,54.3779 27.7037,55.364 28.6241,56.1083 29.6532,56.2839 30.5733,56.744 31.6243,57.0284 32.588,56.6774 33.2011,56.547 33.1792,56.2184 "
   id="polygon10"
   style="fill:#ffdf49" />
  <polygon
   points="32.5439,3.59148 32.3692,3.96402 32.3033,3.67917 32.5439,3.56979 "
   id="polygon12"
   style="fill:#ffdf49" />

 </g>
</svg>