<?xml version="1.0" encoding="UTF-8" standalone="no"?>
<!-- Created with Inkscape (http://www.inkscape.org/) -->

<svg
   xmlns:svg="http://www.w3.org/2000/svg"
   xmlns="http://www.w3.org/2000/svg"
   version="1.1"
   width="56.513901mm"
   height="61.955399mm"
   viewBox="0 0 44.9398 49.2669"
   id="svg2"
   xml:space="preserve"
   style="fill-rule:evenodd">
 <defs
   id="defs4">
  <style
   type="text/css"
   id="style6" />
 </defs>
 <g
   id="Layer_x0020_1">
  
  <polygon
   points="37.5038,15.2982 37.4025,15.5213 37.4025,14.729 "
   id="polygon10"
   style="fill:#fefefe" />
  <polygon
   points="37.4222,1.23924 37.4025,1.23924 "
   id="polygon12"
   style="fill:#fefefe" />
  <polygon
   points="43.761,27.1427 42.3794,27.2646 42.4203,26.3505 42.1562,25.8625 42.6439,25.5379 43.8625,25.599 44.2898,24.8063 43.9847,23.526 43.2333,22.7745 42.4203,22.5514 42.3794,21.4335 41.202,19.8898 40.9371,18.9753 40.5103,18.4884 41.0993,17.2687 40.653,17.1671 39.9623,17.7362 39.6572,17.5331 39.4336,17.005 38.9056,17.005 38.6414,17.5331 37.9302,16.7408 37.4025,16.7408 37.4025,16.7208 37.1991,15.9891 37.4025,15.5213 37.4025,14.729 37.2395,13.9572 36.1224,13.7946 36.0206,13.3075 36.813,13.2668 36.3254,12.6162 37.1379,11.9255 35.6342,10.0973 35.6954,9.63019 36.1833,9.50844 36.3254,9.95527 36.9149,9.50844 37.4025,8.71531 38.5804,6.74496 37.9913,6.42005 38.0933,5.66842 37.7679,5.18065 38.1542,4.65287 38.0933,3.63693 38.7429,3.10844 39.0686,2.68165 37.9913,2.19388 37.4025,1.54348 37.1379,1.23924 35.107,1.34095 33.7659,1.23924 32.3234,0.711465 31.4292,0.22361 29.9261,0 26.025,1.40202 25.0701,0.853011 24.4809,1.50325 23.2418,0.974756 22.5511,1.40202 20.1536,0.75218 18.1218,0.650394 15.0135,0.487696 14.0585,1.50325 13.6324,3.10844 13.4698,4.81509 10.6256,5.93227 9.40586,7.21214 7.27274,8.61448 5.93195,8.06555 6.09481,7.00929 4.06331,6.7856 3.37244,6.1558 0.690393,6.62346 0.650235,7.375 1.38086,8.22809 1.0767,8.87825 1.54404,9.50844 1.54404,9.89404 0.853249,10.4222 0.589084,11.8241 1.27995,12.3526 1.54404,13.6931 0,15.2982 0.16238,17.005 1.44217,17.431 1.60487,18.7521 2.88467,20.6416 3.57554,20.8445 3.0476,22.5514 4.1651,23.9529 4.22514,25.599 4.9164,26.4521 5.07918,27.5696 5.60703,28.4836 6.25767,29.0726 7.43599,29.6008 7.43599,30.6781 6.52135,31.1042 5.18065,30.8402 4.00224,31.6327 4.71315,32.4855 4.71315,34.0909 5.60703,34.4158 5.66826,36.8744 6.72508,36.8131 8.55317,38.8042 9.93443,39.2715 10.3612,38.54 11.1735,38.3775 11.8036,38.9057 11.438,39.5557 12.5145,40.4499 14.0585,40.2873 14.5871,42.1565 15.074,41.6892 15.4404,41.8926 14.7494,44.2491 15.3386,44.4519 15.9276,44.3508 15.867,45.0008 17.106,45.5898 17.2685,46.8701 18.4266,47.4591 19.9914,47.297 20.519,46.3821 20.6207,47.4591 21.4748,47.337 21.535,46.118 22.0631,46.2196 22.7135,47.0729 23.4657,47.0729 23.8313,47.6621 23.3435,48.7797 24.1967,49.2669 24.156,49.166 24.2573,48.7797 24.5829,48.2107 25.436,48.0883 25.3345,46.7071 26.1877,47.0729 26.5529,46.7071 25.9234,45.7527 25.8018,44.7773 26.025,44.1473 26.1877,43.0097 26.0861,42.583 25.0086,42.2168 25.2734,41.4659 26.2896,41.3641 28.0974,42.055 28.8491,41.4659 28.8087,40.2465 28.9098,39.3938 29.499,40.0839 30.6167,39.9218 30.0273,38.845 30.7788,38.3169 32.1606,38.6415 33.7659,38.0936 34.5782,37.9913 34.8425,37.1382 35.6954,37.5246 36.4469,37.5246 37.0367,38.9669 37.4025,39.0077 38.0524,39.109 38.3163,40.5514 38.7838,40.5114 38.9056,39.0077 39.5961,38.8042 40.2873,36.4478 40.2262,35.3709 40.8151,34.4767 41.7908,34.5174 43.2738,34.7819 43.5582,33.9284 42.3794,33.1967 42.908,31.5919 42.5829,31.0029 44.2488,30.4132 44.2898,29.5601 44.9398,29.3979 44.8379,27.8946 "
   id="polygon14"
   style="fill:#ffdf49" />
  <polygon
   points="37.3819,1.23924 37.4025,1.23924 "
   id="polygon16"
   style="fill:#fefefe" />
 </g>
</svg>