<?xml version="1.0" encoding="UTF-8" standalone="no"?>
<!-- Created with Inkscape (http://www.inkscape.org/) -->

<svg
   xmlns:svg="http://www.w3.org/2000/svg"
   xmlns="http://www.w3.org/2000/svg"
   version="1.1"
   width="60.268799mm"
   height="49.027401mm"
   viewBox="0 0 61.8985 50.3531"
   id="svg2"
   xml:space="preserve"
   style="fill-rule:evenodd">
 <defs
   id="defs4">
  <style
   type="text/css"
   id="style6" />
 </defs>
 <g
   id="Layer_x0020_1">
  
  <path
   d="m 21.4632,3.80395 1.65323,1.39143 -0.341183,0.681955 -1.31204,0.052379 -0.157035,1.31204 2.91228,3.8044699 0.971272,-0.812697 1.65302,0.05197 0.813313,2.07329 1.04892,2.07236 2.41498,0 0.760934,1.39082 0.34108,-0.708658 1.94234,1.1814 1.65312,0.419238 1.36391,-0.157445 1.52166,1.39113 1.18069,2.20465 1.9942,0.628754 0.760524,-0.76001 0.761653,0.261998 -0.42006,2.0205 0.761448,1.15439 0.131153,1.128 1.60054,-0.07826 0.761037,0.813108 -0.971786,1.732 0.28942,0.761037 1.02252,0.130434 0.551624,-1.36381 1.02365,0.262717 1.52166,0.157445 0.8394,-1.05005 0.682674,0.419752 -0.262512,0.891985 0.681852,0.761756 -0.760729,1.44217 0.47285,0.550596 0.209105,2.0739 2.91269,1.60013 0.47326,-0.969937 -0.263539,-1.18089 1.91646,0.340567 -0.473568,1.52228 0.892806,0.287982 0.682879,0.05289 1.17956,1.52187 0.288804,2.36137 1.44351,1.23389 -2.15114,2.28198 3.46287,3.62124 -1.10119,1.52146 -0.210543,1.78469 c -1.73231,0.838579 -1.94111,0.918174 -1.94111,0.918174 l -1.91615,-1.04943 -1.39072,1.86357 -1.18017,0.550596 -1.36473,-0.340772 -1.25997,-1.73231 -1.23327,0.551624 -2.41324,-1.02324 -1.52228,-0.68329 -2.33498,-0.158164 -1.39174,0.841454 -2.41344,-2.07308 -2.15196,-0.130948 -2.20382,-1.39082 -1.994,-0.130948 -1.73231,1.44186 -3.30543,-2.256 -0.892498,-1.78397 -0.550802,-1.65271 -1.31153,1.23317 -1.05056,-1.73221 -1.36422,0.708247 -1.04974,1.86274 -1.23296,1.023961 -1.52207,0.340772 -1.44289,-0.971272 -0.630192,1.44433 -1.23276,0 -0.630192,-0.604003 0.07857,-1.38979 1.52218,-1.49732 -0.498526,-1.46877 -0.760934,-0.551418 0.367475,-0.813416 -1.04922,-0.629781 -0.814032,0.629781 -0.971478,-0.340875 -1.80975,0.735361 -1.57486,-0.944877 -0.5513154,-0.970348 -0.077439,-2.3623 -0.761653,-1.31215 -1.10181,-0.34108 -2.28342,-0.39387 -0.813416,-1.04912 -0.497704,-2.83412 -1.10263,-0.813211 -1.15491,-1.39041 -1.31122,-1.4434 -0.760934,-1.18069 0.970553,-3.17489 0.761551,-2.41396 1.86254,-1.1813 0.892601,-1.1545 3.01775,-1.39051 0.078158,-1.65312 1.02365,-1.78469 0.209619,-2.0197805 0.839606,-1.70581 1.2337795,-1.94121 0.839298,-0.6305 1.57415,-1.15439 0.550802,-2.49252 0.970862,-0.0785686 1.94183,2.28291 2.62481,-0.131461 0.602359,1.31174 1.46928,0.340772 z"
   id="path10"
   style="fill:#ffdf49" />


 </g>
</svg>